<svg width="16" height="20" viewBox="0 0 16 20" fill="none" xmlns="http://www.w3.org/2000/svg">
<path d="M3.96645 19.3317C3.57805 19.0733 3.23381 18.7541 2.94698 18.3861C2.63146 18.0064 2.33913 17.608 2.07157 17.1931C1.44368 16.2732 0.95128 15.2679 0.609465 14.2079C0.198846 12.9767 0 11.7965 0 10.6422C0 9.35314 0.278877 8.22778 0.824317 7.28219C1.22864 6.5431 1.82311 5.92546 2.54621 5.49319C3.24698 5.05793 4.05217 4.81973 4.87695 4.80369C5.16568 4.80369 5.47657 4.84556 5.80654 4.92559C6.04356 4.99269 6.33228 5.09858 6.68503 5.23032C7.13382 5.40331 7.38068 5.5092 7.46441 5.53505C7.72728 5.63109 7.94829 5.67295 8.12189 5.67295C8.25364 5.67295 8.43955 5.63109 8.65071 5.56706C8.76953 5.5252 8.99361 5.45133 9.31435 5.31404C9.63201 5.19831 9.88195 5.09919 10.0808 5.02532C10.3855 4.93544 10.6804 4.85233 10.9433 4.81047C11.2549 4.76134 11.5712 4.74832 11.8858 4.77168C12.431 4.80732 12.968 4.92285 13.4796 5.11458C14.3163 5.45133 14.9928 5.97707 15.4964 6.72443C15.2836 6.85562 15.0838 7.00694 14.8999 7.1763C14.4995 7.53125 14.1584 7.94796 13.8896 8.41062C13.5383 9.0429 13.3562 9.75517 13.3608 10.4785C13.3738 11.3668 13.6015 12.1493 14.0503 12.8259C14.3803 13.3273 14.8091 13.7561 15.3105 14.086C15.5672 14.259 15.7882 14.3778 16 14.4579C15.9009 14.7657 15.795 15.0636 15.67 15.3591C15.3866 16.0218 15.0431 16.6571 14.6438 17.2571C14.288 17.7736 14.0091 18.1584 13.7973 18.4145C13.4673 18.8054 13.1497 19.104 12.8289 19.312C12.4762 19.546 12.0594 19.671 11.6359 19.671C11.349 19.682 11.0622 19.6473 10.7863 19.5681C10.5493 19.4881 10.3147 19.4013 10.0839 19.3022C9.84387 19.192 9.59639 19.0988 9.34329 19.0233C8.71763 18.8626 8.06165 18.8616 7.43547 19.0202C7.17876 19.0941 6.9319 19.1803 6.68811 19.2862C6.34521 19.4302 6.11743 19.5269 5.98569 19.5681C5.72282 19.6451 5.4501 19.6931 5.1743 19.7091C4.74767 19.7091 4.34998 19.5872 3.95598 19.3404L3.96645 19.3317ZM9.59323 4.17822C9.03547 4.4571 8.50296 4.57591 7.97414 4.53713C7.89103 4.00462 7.97414 3.45979 8.19515 2.86326C8.38331 2.35787 8.66132 1.89069 9.01577 1.48426C9.39008 1.05642 9.84428 0.705734 10.3529 0.451866C10.8947 0.17299 11.4112 0.0221624 11.9049 0C11.9689 0.557753 11.9049 1.10627 11.6999 1.69912C11.5102 2.22318 11.2327 2.71115 10.8793 3.14213C10.5185 3.57056 10.0759 3.92261 9.57722 4.17761L9.59323 4.17822Z" fill="white"/>
</svg>
