<svg width="18" height="18" viewBox="0 0 18 18" fill="none" xmlns="http://www.w3.org/2000/svg">
<g clip-path="url(#clip0_8_218)">
<path d="M3.9495 7.32375C4.30041 6.26209 4.97765 5.33836 5.88459 4.68435C6.79153 4.03034 7.88185 3.67945 9 3.68175C10.2675 3.68175 11.4135 4.13175 12.3135 4.86825L14.9325 2.25C13.3365 0.85875 11.2913 0 9 0C5.4525 0 2.3985 2.0235 0.93 4.9875L3.9495 7.32375Z" fill="white"/>
<path d="M12.03 13.5098C11.2125 14.037 10.1745 14.3183 9 14.3183C7.8863 14.3205 6.8001 13.9725 5.89518 13.3233C4.99025 12.6741 4.31246 11.7567 3.95775 10.701L0.92775 13.0013C1.67118 14.506 2.8217 15.772 4.24862 16.6557C5.67553 17.5393 7.32165 18.005 9 18C11.1997 18 13.3012 17.2178 14.8755 15.75L12.0308 13.5098H12.03Z" fill="white"/>
<path d="M14.8755 15.75C16.5217 14.214 17.5905 11.928 17.5905 8.99999C17.5905 8.46749 17.5087 7.89524 17.3865 7.36349H9V10.8412H13.827C13.5893 12.0105 12.9495 12.9157 12.0308 13.5097L14.8755 15.75Z" fill="white"/>
<path d="M3.95775 10.701C3.77427 10.1527 3.68106 9.57819 3.68175 8.99999C3.68175 8.41349 3.7755 7.85024 3.9495 7.32374L0.930003 4.98749C0.312287 6.2345 -0.00614388 7.60838 3.41756e-06 8.99999C3.41757e-06 10.44 0.333753 11.7975 0.927753 13.0012L3.95775 10.701Z" fill="white"/>
</g>
<defs>
<clipPath id="clip0_8_218">
<rect width="18" height="18" fill="white"/>
</clipPath>
</defs>
</svg>
